<?xml version="1.0" encoding="UTF-8"?>
<!DOCTYPE svg PUBLIC "-//W3C//DTD SVG 1.1//EN" "http://www.w3.org/Graphics/SVG/1.1/DTD/svg11.dtd">
<!-- Creator: CorelDRAW 2020 (64-Bit) -->
<svg xmlns="http://www.w3.org/2000/svg" xml:space="preserve" width="99px" height="128px" version="1.1" style="shape-rendering:geometricPrecision; text-rendering:geometricPrecision; image-rendering:optimizeQuality; fill-rule:evenodd; clip-rule:evenodd"
viewBox="0 0 99 128.12"
 xmlns:xlink="http://www.w3.org/1999/xlink"
 xmlns:xodm="http://www.corel.com/coreldraw/odm/2003">
 <defs>
  <style type="text/css">
   <![CDATA[
    .fil0 {fill:white}
   ]]>
  </style>
    <clipPath id="id0">
     <path d="M49.49 68.47l6.3 0 0 6.31 -6.3 0 0 -6.31z"/>
    </clipPath>
 </defs>
 <g id="Layer_x0020_1">
  <metadata id="CorelCorpID_0Corel-Layer"/>
  <g id="_1921395604976">
   <g style="clip-path:url(#id0)">
    <image x="49.49" y="68.47" width="6.3" height="6.31" xlink:href="logo_Images\logo_ImgID1.png"/>
   </g>
  </g>
  <path class="fil0" d="M53.12 69.16l0.91 0c0.59,0.02 1.07,0.51 1.07,1.11 0,0.56 -0.42,1.02 -0.96,1.09l0 0 -0.01 0c0,0 -0.01,0 -0.02,0l0 0c-0.01,0 -0.02,0 -0.02,0l-0.01 0c-0.01,0.01 -0.01,0.01 -0.02,0.01l0 0 0 0c-0.01,0 -0.02,0 -0.03,0l0 0 -0.03 0 0 0 0 0 -1.49 0 0 -0.56 1.49 0 0 0c0,0 0.01,0 0.01,0l0.01 0c0,0 0,0 0.01,0l0 0c0,0 0.01,0 0.01,0l0 0c0.01,0 0.01,0 0.02,0l0 0c0.01,-0.01 0.01,-0.01 0.02,-0.01l0.01 0c0,0 0,0 0.01,0l0 0c0,0 0,0 0.01,0l0 0c0.01,0 0.01,0 0.01,-0.01l0 0c0.01,0 0.01,0 0.01,0l0.01 0c0,0 0,0 0.01,0l0 0c0.01,0 0.01,0 0.01,-0.01l0 0 0 0c0.01,0 0.01,0 0.01,0l0.01 0c0,0 0,0 0.01,0l0 -0.01 0.01 0 0 0c0,0 0.01,0 0.01,0l0 -0.01 0.01 0 0.01 0 0 0 0.01 -0.01c0,0 0,0 0.01,0l0 0 0.01 -0.01 0 0 0 0c0,0 0.01,0 0.01,0l0 0 0 -0.01 0.01 0 0.01 0 0 -0.01 0.01 0 0 0c0,0 0.01,-0.01 0.01,-0.01l0 0 0.01 0 0 -0.01 0.01 0 0 0c0.01,-0.01 0.01,-0.01 0.01,-0.01l0 0 0.01 -0.01 0 0c0,0 0.01,-0.01 0.01,-0.01l0 0c0.01,0 0.01,-0.01 0.02,-0.02l0 0c0,0 0.01,0 0.01,-0.01l0 0 0.01 0 0 0c0,-0.01 0.01,-0.01 0.01,-0.02l0 0c0,0 0.01,-0.01 0.01,-0.01l0 -0.01c0.01,0 0.01,-0.01 0.02,-0.01l0 0c0,-0.01 0.01,-0.02 0.01,-0.02 0.06,-0.09 0.09,-0.19 0.09,-0.3 0,-0.22 -0.12,-0.4 -0.3,-0.49l0 0 0 0c0,0 -0.01,-0.01 -0.01,-0.01l0 0 -0.01 0 0 0 0 0 0 0c-0.01,-0.01 -0.01,-0.01 -0.01,-0.01l0 0 -0.01 0 0 0 -0.01 0 0 -0.01 -0.01 0 -0.01 0 -0.01 0 0 0 -0.01 -0.01 0 0c-0.01,0 -0.01,0 -0.01,0l0 0c-0.01,0 -0.01,0 -0.02,0l0 0c0,-0.01 0,-0.01 -0.01,-0.01l0 0c0,0 -0.01,0 -0.01,0l0 0c-0.01,0 -0.01,0 -0.02,0l0 0c0,0 -0.01,0 -0.01,0l0 0 0 0c0,0 -0.01,0 -0.01,-0.01l0 0c-0.01,0 -0.01,0 -0.02,0l0 0c0,0 -0.01,0 -0.01,0l0 0 0 0c-0.01,0 -0.01,0 -0.01,0l-0.01 0c0,0 0,0 -0.01,0l0 0 -0.88 0c-0.43,0 -0.78,0.35 -0.78,0.78l0 0.16 0 0.15 0 0.56 0 0.15 0 0.77 -0.56 0 0 -0.76 0 -0.16 0 -0.56 0 0 0 -0.31c0,-0.74 0.6,-1.34 1.34,-1.34zm-1.11 1.88l0 1.02 0.1 0 0 -1.56c0,-0.56 0.45,-1.01 1.01,-1.01l0.88 0c0.01,0 0.01,0 0.02,0l0 0c0.01,0 0.01,0 0.02,0.01l0 0c0.01,0 0.01,0 0.02,0l0 0c0.01,0 0.01,0 0.02,0l0 0c0.01,0 0.01,0 0.02,0l0 0 0 0c0.01,0 0.01,0 0.02,0l0 0c0.01,0 0.01,0.01 0.02,0.01l0 0c0,0 0.01,0 0.02,0l0 0c0,0 0.01,0 0.01,0l0.01 0c0,0.01 0.01,0.01 0.01,0.01l0.01 0c0,0 0,0 0.01,0l0.01 0 0.01 0.01 0 0 0.01 0 0.01 0.01 0.01 0 0.01 0 0.01 0.01 0.01 0 0 0c0.01,0 0.01,0.01 0.02,0.01l0 0 0.01 0 0.01 0.01c0,0 0.01,0 0.01,0l0.01 0.01c0.26,0.13 0.42,0.39 0.42,0.69 0,0.15 -0.04,0.29 -0.13,0.42 0,0.01 -0.01,0.02 -0.02,0.03l0 0c0,0.01 -0.01,0.02 -0.02,0.03l0 0c-0.01,0.01 -0.01,0.02 -0.02,0.02l0 0c-0.01,0.01 -0.01,0.02 -0.01,0.02l-0.01 0 0 0.01c-0.01,0 -0.01,0.01 -0.02,0.02l0 0c-0.01,0.01 -0.02,0.01 -0.03,0.02l0 0c0,0.01 -0.01,0.01 -0.01,0.01l-0.01 0.01 0 0 -0.01 0.01c0,0 0,0 -0.01,0.01l0 0 -0.01 0 -0.01 0.01 -0.01 0.01 0 0c-0.01,0 -0.01,0.01 -0.01,0.01l-0.01 0 -0.01 0.01 -0.01 0 -0.01 0.01 0 0 -0.01 0.01c0,0 -0.01,0 -0.01,0l-0.01 0.01 -0.01 0c0,0 -0.01,0.01 -0.01,0.01l-0.01 0 -0.01 0.01 -0.01 0 -0.01 0 0 0.01c-0.01,0 -0.01,0 -0.02,0l0 0 -0.01 0.01 0 0c-0.01,0 -0.02,0 -0.02,0l-0.01 0.01c0,0 0,0 -0.01,0l0 0 0 0c-0.01,0 -0.01,0 -0.02,0.01l0 0c-0.01,0 -0.01,0 -0.02,0l0 0c0,0 -0.01,0 -0.01,0.01l-0.01 0c0,0 -0.01,0 -0.01,0l-0.01 0c0,0 -0.01,0 -0.01,0l0 0c-0.01,0 -0.01,0.01 -0.02,0.01l0 0c-0.02,0 -0.03,0 -0.04,0l0 0c-0.01,0 -0.01,0 -0.02,0l0 0c-0.01,0 -0.01,0 -0.02,0l0 0c-0.01,0.01 -0.01,0.01 -0.02,0.01l0 0c-0.01,0 -0.01,0 -0.02,0l-1.27 0 0 0.1 1.28 0 0.01 0c0.01,0 0.02,0 0.02,0l0 0c0.01,0 0.02,0 0.03,0l0 0c0,0 0.01,0 0.02,0l0 0c0.01,-0.01 0.01,-0.01 0.02,-0.01l0.01 0c0.43,-0.05 0.76,-0.43 0.76,-0.86 0,-0.48 -0.38,-0.87 -0.85,-0.88l-0.91 0c-0.62,0 -1.11,0.5 -1.11,1.11l0 0.54 0 0zm-0.63 0.1l0 -0.1 -0.15 0 -0.02 0c-0.47,0.01 -0.85,0.4 -0.85,0.87 0,0.48 0.38,0.86 0.85,0.88l0.02 0 2.19 0c-0.16,-0.09 -0.39,-0.11 -0.52,-0.11l-1.66 0c-0.43,0 -0.77,-0.34 -0.77,-0.77 0,-0.42 0.34,-0.77 0.77,-0.77l0.14 0zm0.72 2.27l-0.09 0 0 0.27c0.05,-0.08 0.07,-0.17 0.09,-0.27zm-0.49 -2.04l-0.37 0 0 0c-0.3,0 -0.55,0.24 -0.55,0.54 0,0.3 0.25,0.54 0.55,0.54l0 0 0.36 0 0.18 0 0.56 0 0.13 0 0.43 0c0.55,0 0.91,0.23 0.93,0.56l-1.44 0 -0.05 0 -0.56 0 -0.18 0 -0.36 0 0 0 0 0 -0.03 0 0 0c-0.6,-0.01 -1.08,-0.5 -1.08,-1.1 0,-0.6 0.48,-1.09 1.08,-1.1l0 0 0.03 0 0 0 0 0 0.37 0 0 0.56zm0.73 1.81c0,0.5 -0.17,0.83 -0.56,0.91l0 -0.91 0.56 0z"/>
 </g>
</svg>
